<?xml version="1.0" encoding="UTF-8"?>
<svg width="18px" height="20px" viewBox="0 0 18 20" version="1.1" xmlns="http://www.w3.org/2000/svg" xmlns:xlink="http://www.w3.org/1999/xlink">
    <!-- Generator: Sketch 47.1 (45422) - http://www.bohemiancoding.com/sketch -->
    <title>android - material</title>
    <desc>Created with Sketch.</desc>
    <defs></defs>
    <g id="Page-1" stroke="none" stroke-width="1" fill="none" fill-rule="evenodd">
        <g id="Desktop-HD" transform="translate(-871.000000, -521.000000)" fill="#65C86F">
            <g id="Dynamic-group" transform="translate(850.000000, 492.000000)">
                <g id="20:20" transform="translate(21.000000, 20.000000)">
                    <path d="M11.5,13.18 L11.5,12.32 L10.68,12.32 L10.68,13.18 L11.5,13.18 Z M7.32,13.18 L7.32,12.32 L6.5,12.32 L6.5,13.18 L7.32,13.18 Z M11.94,10.8 C12.5666698,11.2533356 13.0666648,11.8366631 13.44,12.55 C13.8133352,13.2633369 14,14.019996 14,14.82 L4,14.82 C4,14.0066626 4.1799982,13.2466702 4.54,12.54 C4.9000018,11.8333298 5.3999968,11.2533356 6.04,10.8 L4.94,9.7 C4.8599996,9.6199996 4.82,9.5233339 4.82,9.41 C4.82,9.2966661 4.8599996,9.2000004 4.94,9.12 C5.0200004,9.0399996 5.1166661,9 5.23,9 C5.3433339,9 5.4399996,9.0399996 5.52,9.12 L6.78,10.36 C7.4733368,9.9999982 8.2066628,9.82 8.98,9.82 C9.7533372,9.82 10.4866632,9.9999982 11.18,10.36 L12.44,9.12 C12.5200004,9.0399996 12.6166661,9 12.73,9 C12.8433339,9 12.9399996,9.0399996 13.02,9.12 C13.1000004,9.2000004 13.14,9.2966661 13.14,9.41 C13.14,9.5233339 13.1000004,9.6199996 13.02,9.7 L11.94,10.8 Z M16.08,15.68 C16.4266684,15.68 16.7199988,15.7999988 16.96,16.04 C17.2000012,16.2800012 17.32,16.5733316 17.32,16.92 L17.32,22.74 C17.32,23.1000018 17.2000012,23.3999988 16.96,23.64 C16.7199988,23.8800012 16.4266684,24 16.08,24 C15.7333316,24 15.4366679,23.8800012 15.19,23.64 C14.9433321,23.3999988 14.82,23.1000018 14.82,22.74 L14.82,16.92 C14.82,16.5733316 14.9399988,16.2800012 15.18,16.04 C15.4200012,15.7999988 15.7199982,15.68 16.08,15.68 Z M1.94,15.68 C2.2866684,15.68 2.5799988,15.7999988 2.82,16.04 C3.0600012,16.2800012 3.18,16.5733316 3.18,16.92 L3.18,22.74 C3.18,23.1000018 3.0600012,23.3999988 2.82,23.64 C2.5799988,23.8800012 2.2866684,24 1.94,24 C1.5933316,24 1.2966679,23.8800012 1.05,23.64 C0.8033321,23.3999988 0.68,23.1000018 0.68,22.74 L0.68,16.92 C0.68,16.5733316 0.7999988,16.2800012 1.04,16.04 C1.2800012,15.7999988 1.5799982,15.68 1.94,15.68 Z M4,24 L4,15.68 L14,15.68 L14,24 C14,24.2266678 13.9200008,24.4199992 13.76,24.58 C13.5999992,24.7400008 13.4066678,24.82 13.18,24.82 L12.32,24.82 L12.32,27.76 C12.32,28.1066684 12.2000012,28.3999988 11.96,28.64 C11.7199988,28.8800012 11.4266684,29 11.08,29 C10.7333316,29 10.4366679,28.8800012 10.19,28.64 C9.9433321,28.3999988 9.82,28.1066684 9.82,27.76 L9.82,24.82 L8.18,24.82 L8.18,27.76 C8.18,28.1066684 8.0600012,28.3999988 7.82,28.64 C7.5799988,28.8800012 7.2866684,29 6.94,29 C6.5933316,29 6.2966679,28.8800012 6.05,28.64 C5.8033321,28.3999988 5.68,28.1066684 5.68,27.76 L5.68,24.82 L4.82,24.82 C4.5933322,24.82 4.4000008,24.7400008 4.24,24.58 C4.0799992,24.4199992 4,24.2266678 4,24 Z" id="android---material"></path>
                </g>
            </g>
        </g>
    </g>
</svg>