<?xml version="1.0" encoding="UTF-8"?>
<svg width="557px" height="111px" viewBox="0 0 557 111" version="1.1" xmlns="http://www.w3.org/2000/svg" xmlns:xlink="http://www.w3.org/1999/xlink">
    <!-- Generator: Sketch 47.1 (45422) - http://www.bohemiancoding.com/sketch -->
    <title>Group</title>
    <desc>Created with Sketch.</desc>
    <defs>
        <path d="M60.825359,62.699438 C58.1883364,65.8837672 55.0786865,68.3092941 51.4963162,69.9760914 C47.9139459,71.6428887 43.9087169,72.4762749 39.4805091,72.4762749 C35.5000976,72.4762749 31.8058336,71.7548361 28.3976063,70.311937 C24.9893789,68.8690378 22.0414309,66.9037391 19.5536737,64.4159819 C17.0659165,61.9282247 15.1006178,58.9802767 13.6577186,55.5720493 C12.2148195,52.163822 11.4933807,48.4944352 11.4933807,44.5637789 C11.4933807,40.6331225 12.2148195,36.9637357 13.6577186,33.5555084 C15.1006178,30.147281 17.0659165,27.199333 19.5536737,24.7115758 C22.0414309,22.2238186 24.9893789,20.2585199 28.3976063,18.8156208 C31.8058336,17.3727216 35.5000976,16.6512828 39.4805091,16.6512828 C43.7594514,16.6512828 47.528347,17.3975988 50.7873089,18.8902531 C54.0462709,20.3829074 56.9444645,22.5472237 59.4819768,25.3832669 L52.3919043,32.2494424 C50.7997397,30.4085021 48.9712656,28.9407473 46.9064271,27.8461342 C44.8415887,26.751521 42.3911846,26.2042226 39.5551414,26.2042226 C37.0673842,26.2042226 34.7289276,26.6395736 32.5397013,27.5102886 C30.3504749,28.3810037 28.4473692,29.612425 26.8303271,31.2045896 C25.2132849,32.7967542 23.9321092,34.7247371 22.9867614,36.9885961 C22.0414137,39.2524551 21.5687469,41.7774908 21.5687469,44.5637789 C21.5687469,47.3500669 22.0414137,49.8751026 22.9867614,52.1389616 C23.9321092,54.4028206 25.2132849,56.3308035 26.8303271,57.9229681 C28.4473692,59.5151327 30.3504749,60.7465541 32.5397013,61.6172691 C34.7289276,62.4879841 37.0673842,62.9233351 39.5551414,62.9233351 C42.54045,62.9233351 45.1898717,62.3138437 47.5034859,61.0948427 C49.8171001,59.8758417 51.869469,58.1468764 53.6606541,55.9078949 L60.825359,62.699438 Z M85.0062379,33.5181922 C87.8422811,33.5181922 90.4419484,34.0032976 92.8053177,34.9735229 C95.168687,35.9437482 97.2086173,37.2871169 98.9251697,39.0036694 C100.641722,40.7202218 101.985091,42.7725907 102.955316,45.1608376 C103.925542,47.5490845 104.410647,50.1611904 104.410647,52.9972335 C104.410647,55.8332767 103.925542,58.4453826 102.955316,60.8336295 C101.985091,63.2218764 100.641722,65.2742453 98.9251697,66.9907977 C97.2086173,68.7073502 95.168687,70.0507189 92.8053177,71.0209442 C90.4419484,71.9911695 87.8422811,72.4762749 85.0062379,72.4762749 C82.1701947,72.4762749 79.5705275,71.9911695 77.2071581,71.0209442 C74.8437888,70.0507189 72.8038585,68.7073502 71.0873061,66.9907977 C69.3707536,65.2742453 68.0273849,63.2218764 67.0571596,60.8336295 C66.0869343,58.4453826 65.6018289,55.8332767 65.6018289,52.9972335 C65.6018289,50.1611904 66.0869343,47.5490845 67.0571596,45.1608376 C68.0273849,42.7725907 69.3707536,40.7202218 71.0873061,39.0036694 C72.8038585,37.2871169 74.8437888,35.9437482 77.2071581,34.9735229 C79.5705275,34.0032976 82.1701947,33.5181922 85.0062379,33.5181922 Z M85.0062379,63.4457615 C86.2501165,63.4457615 87.4566606,63.2094281 88.6259065,62.7367542 C89.7951524,62.2640803 90.8275561,61.5799574 91.7231487,60.6843648 C92.6187413,59.7887722 93.3277415,58.6941755 93.8501705,57.4005417 C94.3725995,56.106908 94.6338101,54.6391533 94.6338101,52.9972335 C94.6338101,51.3553138 94.3725995,49.8875591 93.8501705,48.5939253 C93.3277415,47.3002916 92.6187413,46.2056949 91.7231487,45.3101023 C90.8275561,44.4145097 89.7951524,43.7303867 88.6259065,43.2577129 C87.4566606,42.785039 86.2501165,42.5487056 85.0062379,42.5487056 C83.7126042,42.5487056 82.4936214,42.785039 81.3492531,43.2577129 C80.2048848,43.7303867 79.1849197,44.4145097 78.2893271,45.3101023 C77.3937345,46.2056949 76.6847343,47.3002916 76.1623053,48.5939253 C75.6398763,49.8875591 75.3786657,51.3553138 75.3786657,52.9972335 C75.3786657,54.6391533 75.6398763,56.106908 76.1623053,57.4005417 C76.6847343,58.6941755 77.3937345,59.7887722 78.2893271,60.6843648 C79.1849197,61.5799574 80.2048848,62.2640803 81.3492531,62.7367542 C82.4936214,63.2094281 83.7126042,63.4457615 85.0062379,63.4457615 Z M137.920569,66.8788492 L137.32351,66.8788492 C136.427917,68.4212587 135.034794,69.7397502 133.144099,70.8343634 C131.253403,71.9289765 128.914947,72.4762749 126.128659,72.4762749 C123.790167,72.4762749 121.563657,71.9911695 119.449064,71.0209442 C117.33447,70.0507189 115.46868,68.7073502 113.851638,66.9907977 C112.234596,65.2742453 110.95342,63.2218764 110.008073,60.8336295 C109.062725,58.4453826 108.590058,55.8332767 108.590058,52.9972335 C108.590058,50.1611904 109.062725,47.5490845 110.008073,45.1608376 C110.95342,42.7725907 112.234596,40.7202218 113.851638,39.0036694 C115.46868,37.2871169 117.33447,35.9437482 119.449064,34.9735229 C121.563657,34.0032976 123.790167,33.5181922 126.128659,33.5181922 C128.914947,33.5181922 131.253403,34.0654906 133.144099,35.1601037 C135.034794,36.2547169 136.427917,37.5732084 137.32351,39.1156179 L137.920569,39.1156179 L137.32351,33.8913539 L137.32351,17.8454003 L147.100347,17.8454003 L147.100347,71.2821574 L137.920569,71.2821574 L137.920569,66.8788492 Z M128.143732,63.4457615 C129.437365,63.4457615 130.668787,63.2094281 131.838033,62.7367542 C133.007279,62.2640803 134.039682,61.5799574 134.935275,60.6843648 C135.830867,59.7887722 136.552306,58.6941755 137.099613,57.4005417 C137.646919,56.106908 137.920569,54.6391533 137.920569,52.9972335 C137.920569,51.3553138 137.646919,49.8875591 137.099613,48.5939253 C136.552306,47.3002916 135.830867,46.2056949 134.935275,45.3101023 C134.039682,44.4145097 133.007279,43.7303867 131.838033,43.2577129 C130.668787,42.785039 129.437365,42.5487056 128.143732,42.5487056 C126.850098,42.5487056 125.618677,42.7974776 124.449431,43.295029 C123.280185,43.7925805 122.247781,44.489142 121.352189,45.3847346 C120.456596,46.2803272 119.735157,47.3749239 119.187851,48.6685577 C118.640544,49.9621914 118.366895,51.4050689 118.366895,52.9972335 C118.366895,54.5893981 118.640544,56.0322757 119.187851,57.3259094 C119.735157,58.6195431 120.456596,59.7141399 121.352189,60.6097325 C122.247781,61.505325 123.280185,62.2018866 124.449431,62.699438 C125.618677,63.1969895 126.850098,63.4457615 128.143732,63.4457615 Z M190.088576,62.475541 C188.396901,65.4608496 186.120637,67.8739379 183.259717,69.7148782 C180.398796,71.5558185 176.903549,72.4762749 172.773872,72.4762749 C169.987584,72.4762749 167.412794,71.9911695 165.049425,71.0209442 C162.686056,70.0507189 160.633687,68.6949116 158.892257,66.9534816 C157.150827,65.2120515 155.795019,63.1596826 154.824794,60.7963133 C153.854569,58.432944 153.369463,55.8332767 153.369463,52.9972335 C153.369463,50.3602109 153.84213,47.8600525 154.787478,45.4966831 C155.732826,43.1333138 157.051317,41.0685063 158.742992,39.3021987 C160.434667,37.5358911 162.437281,36.1303294 164.750896,35.0854714 C167.06451,34.0406134 169.614423,33.5181922 172.400711,33.5181922 C175.336264,33.5181922 177.94837,34.0032976 180.237107,34.9735229 C182.525843,35.9437482 184.441388,37.2871169 185.983797,39.0036694 C187.526207,40.7202218 188.695435,42.7477135 189.491517,45.0862053 C190.287599,47.424697 190.685635,49.9621713 190.685635,52.6987042 L190.685635,53.5942923 C190.635879,53.8928231 190.611002,54.1664723 190.611002,54.415248 C190.561247,54.6640238 190.53637,54.9376729 190.53637,55.2362038 L162.997036,55.2362038 C163.196056,56.7288581 163.60653,58.0100338 164.228469,59.0797694 C164.850409,60.149505 165.621602,61.0450842 166.542072,61.7665338 C167.462542,62.4879833 168.470069,63.0104045 169.564682,63.333813 C170.659295,63.6572214 171.778769,63.8189232 172.923137,63.8189232 C175.162119,63.8189232 177.01547,63.3089406 178.483247,62.2889602 C179.951023,61.2689797 181.107813,59.987804 181.953651,58.4453945 L190.088576,62.475541 Z M181.207327,48.295396 C181.157572,47.6485791 180.946116,46.9271403 180.572952,46.131058 C180.199789,45.3349757 179.65249,44.5886598 178.931041,43.8920878 C178.209591,43.1955158 177.314012,42.6233402 176.244276,42.1755439 C175.174541,41.7277476 173.893365,41.5038528 172.400711,41.5038528 C170.310995,41.5038528 168.470082,42.1009056 166.877917,43.295029 C165.285753,44.4891525 164.166279,46.1559248 163.519462,48.295396 L181.207327,48.295396 Z" id="path-1"></path>
        <filter x="0.0%" y="0.0%" width="100.0%" height="100.0%" filterUnits="objectBoundingBox" id="filter-2">
            <feOffset dx="0" dy="0" in="SourceAlpha" result="shadowOffsetOuter1"></feOffset>
            <feColorMatrix values="0 0 0 0 0.374708199   0 0 0 0 0.728183461   0 0 0 0 0.410412771  0 0 0 1 0" type="matrix" in="shadowOffsetOuter1"></feColorMatrix>
        </filter>
    </defs>
    <g id="Page-1" stroke="none" stroke-width="1" fill="none" fill-rule="evenodd">
        <g id="Desktop-HD" transform="translate(-826.000000, -256.000000)">
            <g id="Group-2" transform="translate(823.000000, 256.000000)">
                <g id="Group" transform="translate(3.240000, 0.000000)">
                    <g id="Group-Copy">
                        <path d="M0.767721111,31.6979002 L47.9619079,0.621559474 L47.9619079,0.621559474 C48.7487708,0.103427462 49.8066782,0.321276874 50.3248102,1.10813976 C50.5082085,1.38665815 50.605951,1.71282298 50.605951,2.04630075 L50.605951,11.0390701 L50.605951,11.0390701 C50.605951,11.6230482 50.3072263,12.1664442 49.8141659,12.4793689 L11.4870311,36.8039889 L11.4870311,36.8039889 C10.6915761,37.3088307 10.4559876,38.3629296 10.9608294,39.1583846 C11.0949825,39.3697633 11.2740177,39.5490228 11.4852282,39.6834405 L49.8159689,64.0777365 L49.8159689,64.0777365 C50.3079967,64.3908709 50.605951,64.9336703 50.605951,65.5168894 L50.605951,74.5072468 L50.605951,74.5072468 C50.605951,75.4493795 49.8422016,76.2131289 48.9000689,76.2131289 C48.566009,76.2131289 48.2393008,76.1150451 47.9604805,75.9310471 L0.766293679,44.7868541 L0.766293679,44.7868541 C0.28787587,44.4711386 -3.77508844e-15,43.9362552 -1.55431223e-15,43.3630538 L0,33.1226415 L-1.55431223e-15,33.1226415 C-1.62458339e-15,32.5488339 0.288480898,32.0134694 0.767721111,31.6979002 Z" id="&lt;" fill="#000000"></path>
                        <path d="M36.4771195,65.6133366 L83.6713063,34.5369958 L83.6713063,34.5369958 C84.4581692,34.0188638 85.5160766,34.2367132 86.0342086,35.0235761 C86.2176069,35.3020945 86.3153494,35.6282593 86.3153494,35.9617371 L86.3153494,44.9545065 L86.3153494,44.9545065 C86.3153494,45.5384846 86.0166247,46.0818805 85.5235643,46.3948052 L47.1964295,70.7194252 L47.1964295,70.7194252 C46.4009745,71.2242671 46.165386,72.2783659 46.6702278,73.073821 C46.8043809,73.2851996 46.9834161,73.4644591 47.1946266,73.5988769 L85.5253672,97.9931729 L85.5253672,97.9931729 C86.0173951,98.3063073 86.3153494,98.8491066 86.3153494,99.4323258 L86.3153494,108.422683 L86.3153494,108.422683 C86.3153494,109.364816 85.5516,110.128565 84.6094673,110.128565 C84.2754074,110.128565 83.9486992,110.030481 83.6698789,109.846483 L36.4756921,78.7022905 L36.4756921,78.7022905 C35.9972743,78.386575 35.7093984,77.8516916 35.7093984,77.2784902 L35.7093984,67.0380778 L35.7093984,67.0380778 C35.7093984,66.4642703 35.9978793,65.9289058 36.4771195,65.6133366 Z" id="&lt;-copy" fill="#65C86F" transform="translate(61.012374, 72.192115) scale(-1, 1) translate(-61.012374, -72.192115) "></path>
                    </g>
                    <path d="M156.970474,73.4926468 C154.333451,76.676976 151.223802,79.1025029 147.641431,80.7693002 C144.059061,82.4360975 140.053832,83.2694837 135.625624,83.2694837 C131.645213,83.2694837 127.950949,82.5480449 124.542721,81.1051458 C121.134494,79.6622466 118.186546,77.6969479 115.698789,75.2091907 C113.211031,72.7214335 111.245733,69.7734855 109.802834,66.3652582 C108.359934,62.9570308 107.638496,59.287644 107.638496,55.3569877 C107.638496,51.4263313 108.359934,47.7569445 109.802834,44.3487172 C111.245733,40.9404898 113.211031,37.9925418 115.698789,35.5047846 C118.186546,33.0170274 121.134494,31.0517287 124.542721,29.6088296 C127.950949,28.1659304 131.645213,27.4444916 135.625624,27.4444916 C139.904566,27.4444916 143.673462,28.1908076 146.932424,29.6834619 C150.191386,31.1761162 153.089579,33.3404325 155.627092,36.1764757 L148.537019,43.0426512 C146.944855,41.2017109 145.116381,39.7339561 143.051542,38.639343 C140.986704,37.5447298 138.5363,36.9974315 135.700256,36.9974315 C133.212499,36.9974315 130.874043,37.4327824 128.684816,38.3034974 C126.49559,39.1742125 124.592484,40.4056338 122.975442,41.9977984 C121.3584,43.589963 120.077224,45.5179459 119.131876,47.7818049 C118.186529,50.045664 117.713862,52.5706996 117.713862,55.3569877 C117.713862,58.1432757 118.186529,60.6683114 119.131876,62.9321704 C120.077224,65.1960294 121.3584,67.1240123 122.975442,68.7161769 C124.592484,70.3083415 126.49559,71.5397629 128.684816,72.4104779 C130.874043,73.2811929 133.212499,73.7165439 135.700256,73.7165439 C138.685565,73.7165439 141.334987,73.1070525 143.648601,71.8880515 C145.962215,70.6690505 148.014584,68.9400852 149.805769,66.7011037 L156.970474,73.4926468 Z M163.836649,45.5055185 L173.016428,45.5055185 L173.016428,50.5805178 L173.613486,50.5805178 C174.061283,49.6849252 174.658335,48.8639776 175.404663,48.1176505 C176.15099,47.3713233 176.984376,46.7245161 177.904846,46.1772096 C178.825316,45.629903 179.820404,45.2069906 180.89014,44.9084597 C181.959875,44.6099289 183.017156,44.4606657 184.062014,44.4606657 C185.355648,44.4606657 186.462683,44.5850517 187.383153,44.8338274 C188.303624,45.0826031 189.087255,45.4060067 189.734072,45.8040478 L187.12194,54.6852966 C186.524879,54.3867657 185.865633,54.1504323 185.144183,53.9762893 C184.422734,53.8021463 183.539593,53.7150761 182.494735,53.7150761 C181.151346,53.7150761 179.932363,53.9762867 178.83775,54.4987157 C177.743137,55.0211447 176.810242,55.7550221 176.039037,56.7003698 C175.267833,57.6457176 174.67078,58.7527529 174.247861,60.0215091 C173.824943,61.2902652 173.613486,62.6709497 173.613486,64.1636041 L173.613486,82.0753662 L163.836649,82.0753662 L163.836649,45.5055185 Z M211.526716,44.311401 C214.362759,44.311401 216.962427,44.7965064 219.325796,45.7667317 C221.689165,46.736957 223.729096,48.0803257 225.445648,49.7968782 C227.162201,51.5134306 228.505569,53.5657995 229.475795,55.9540464 C230.44602,58.3422933 230.931125,60.9543992 230.931125,63.7904423 C230.931125,66.6264855 230.44602,69.2385914 229.475795,71.6268383 C228.505569,74.0150852 227.162201,76.0674541 225.445648,77.7840065 C223.729096,79.500559 221.689165,80.8439277 219.325796,81.814153 C216.962427,82.7843783 214.362759,83.2694837 211.526716,83.2694837 C208.690673,83.2694837 206.091006,82.7843783 203.727636,81.814153 C201.364267,80.8439277 199.324337,79.500559 197.607784,77.7840065 C195.891232,76.0674541 194.547863,74.0150852 193.577638,71.6268383 C192.607413,69.2385914 192.122307,66.6264855 192.122307,63.7904423 C192.122307,60.9543992 192.607413,58.3422933 193.577638,55.9540464 C194.547863,53.5657995 195.891232,51.5134306 197.607784,49.7968782 C199.324337,48.0803257 201.364267,46.736957 203.727636,45.7667317 C206.091006,44.7965064 208.690673,44.311401 211.526716,44.311401 Z M211.526716,74.2389703 C212.770595,74.2389703 213.977139,74.0026369 215.146385,73.529963 C216.315631,73.0572892 217.348034,72.3731662 218.243627,71.4775736 C219.13922,70.581981 219.84822,69.4873843 220.370649,68.1937505 C220.893078,66.9001168 221.154288,65.4323621 221.154288,63.7904423 C221.154288,62.1485226 220.893078,60.6807679 220.370649,59.3871341 C219.84822,58.0935004 219.13922,56.9989037 218.243627,56.1033111 C217.348034,55.2077185 216.315631,54.5235955 215.146385,54.0509217 C213.977139,53.5782478 212.770595,53.3419144 211.526716,53.3419144 C210.233082,53.3419144 209.0141,53.5782478 207.869731,54.0509217 C206.725363,54.5235955 205.705398,55.2077185 204.809805,56.1033111 C203.914213,56.9989037 203.205213,58.0935004 202.682784,59.3871341 C202.160355,60.6807679 201.899144,62.1485226 201.899144,63.7904423 C201.899144,65.4323621 202.160355,66.9001168 202.682784,68.1937505 C203.205213,69.4873843 203.914213,70.581981 204.809805,71.4775736 C205.705398,72.3731662 206.725363,73.0572892 207.869731,73.529963 C209.0141,74.0026369 210.233082,74.2389703 211.526716,74.2389703 Z M233.31936,45.5055185 L244.290314,45.5055185 L250.335534,68.4176476 L250.857961,68.4176476 L258.097298,45.5055185 L268.172664,45.5055185 L275.486634,68.4176476 L276.00906,68.4176476 L281.979647,45.5055185 L292.801337,45.5055185 L281.084059,82.0753662 L270.560899,82.0753662 L263.246929,59.0139724 L262.724503,59.0139724 L255.410534,82.0753662 L245.036638,82.0753662 L233.31936,45.5055185 Z M324.520082,77.672058 L323.923024,77.672058 C323.027431,79.2144675 321.634308,80.532959 319.743613,81.6275722 C317.852917,82.7221853 315.51446,83.2694837 312.728172,83.2694837 C310.389681,83.2694837 308.163171,82.7843783 306.048578,81.814153 C303.933984,80.8439277 302.068194,79.500559 300.451152,77.7840065 C298.83411,76.0674541 297.552934,74.0150852 296.607586,71.6268383 C295.662239,69.2385914 295.189572,66.6264855 295.189572,63.7904423 C295.189572,60.9543992 295.662239,58.3422933 296.607586,55.9540464 C297.552934,53.5657995 298.83411,51.5134306 300.451152,49.7968782 C302.068194,48.0803257 303.933984,46.736957 306.048578,45.7667317 C308.163171,44.7965064 310.389681,44.311401 312.728172,44.311401 C315.51446,44.311401 317.852917,44.8586994 319.743613,45.9533125 C321.634308,47.0479257 323.027431,48.3664172 323.923024,49.9088267 L324.520082,49.9088267 L323.923024,44.6845627 L323.923024,28.6386091 L333.699861,28.6386091 L333.699861,82.0753662 L324.520082,82.0753662 L324.520082,77.672058 Z M314.743246,74.2389703 C316.036879,74.2389703 317.268301,74.0026369 318.437547,73.529963 C319.606792,73.0572892 320.639196,72.3731662 321.534789,71.4775736 C322.430381,70.581981 323.15182,69.4873843 323.699127,68.1937505 C324.246433,66.9001168 324.520082,65.4323621 324.520082,63.7904423 C324.520082,62.1485226 324.246433,60.6807679 323.699127,59.3871341 C323.15182,58.0935004 322.430381,56.9989037 321.534789,56.1033111 C320.639196,55.2077185 319.606792,54.5235955 318.437547,54.0509217 C317.268301,53.5782478 316.036879,53.3419144 314.743246,53.3419144 C313.449612,53.3419144 312.218191,53.5906864 311.048945,54.0882378 C309.879699,54.5857893 308.847295,55.2823508 307.951702,56.1779434 C307.05611,57.073536 306.334671,58.1681328 305.787365,59.4617665 C305.240058,60.7554002 304.966409,62.1982777 304.966409,63.7904423 C304.966409,65.3826069 305.240058,66.8254845 305.787365,68.1191182 C306.334671,69.4127519 307.05611,70.5073487 307.951702,71.4029413 C308.847295,72.2985338 309.879699,72.9950954 311.048945,73.4926468 C312.218191,73.9901983 313.449612,74.2389703 314.743246,74.2389703 Z" id="Crowd-Copy" fill="#232323"></path>
                    <g id="Dynamic-group-Copy" transform="translate(354.317045, 6.157168)">
                        <rect id="BG" fill="#65C86F" x="0" y="0.186580856" width="201.507324" height="89.5588108"></rect>
                        <g id="2:2">
                            <use fill="black" fill-opacity="1" filter="url(#filter-2)" xlink:href="#path-1"></use>
                            <use fill="#FFFFFF" fill-rule="evenodd" xlink:href="#path-1"></use>
                        </g>
                    </g>
                </g>
            </g>
        </g>
    </g>
</svg>