<?xml version="1.0" encoding="UTF-8"?>
<svg width="17px" height="21px" viewBox="0 0 17 21" version="1.1" xmlns="http://www.w3.org/2000/svg" xmlns:xlink="http://www.w3.org/1999/xlink">
    <!-- Generator: Sketch 47.1 (45422) - http://www.bohemiancoding.com/sketch -->
    <title>ion-social-apple - Ionicons</title>
    <desc>Created with Sketch.</desc>
    <defs></defs>
    <g id="Page-1" stroke="none" stroke-width="1" fill="none" fill-rule="evenodd">
        <g id="Desktop-HD" transform="translate(-904.000000, -629.000000)" fill="#232323">
            <g id="Dynamic-group" transform="translate(850.000000, 600.000000)">
                <g id="20:20" transform="translate(54.000000, 20.000000)">
                    <path d="M12.5507812,14.4960938 C13.9921947,14.4960938 15.2402291,15.1816338 16.2949219,16.5527344 C15.2402291,17.1503936 14.5546891,18.0117131 14.2382812,19.1367188 C13.9218734,20.2617244 14.0097632,21.3515572 14.5019531,22.40625 C14.9941431,23.4609428 15.7851508,24.1992166 16.875,24.6210938 C16.4882793,25.5351608 16.0664085,26.3437465 15.609375,27.046875 C14.3437437,29.0156348 13.201177,30 12.1816406,30 L12.1289062,30 C11.7421856,30 11.241214,29.8593764 10.6259766,29.578125 C10.0107391,29.2968736 9.40429986,29.15625 8.80664062,29.15625 C8.17382496,29.15625 7.54980776,29.2968736 6.93457031,29.578125 C6.31933286,29.8593764 5.81836131,30 5.43164062,30 L5.37890625,30 C4.32421348,30 3.19922473,29.0683687 2.00390625,27.2050781 C0.878900625,25.4472568 0.228516504,23.5839942 0.052734375,21.6152344 C-0.123047754,19.6464745 0.158199434,18.1171929 0.896484375,17.0273438 C1.95117715,15.3398353 3.32225719,14.4960938 5.00976563,14.4960938 C5.53711201,14.4960938 6.19628511,14.6367173 6.98730469,14.9179688 C7.77832427,15.1992202 8.36718557,15.3398438 8.75390625,15.3398438 C9.10547051,15.3398438 9.66796488,15.1992202 10.4414062,14.9179688 C11.2148476,14.6367173 11.9179656,14.4960938 12.5507812,14.4960938 Z M12.1289062,9.75 C12.269532,10.8750056 11.9531289,11.9648385 11.1796875,13.0195312 C10.3710897,14.074224 9.38672455,14.6015625 8.2265625,14.6015625 L8.17382812,14.6015625 C7.998046,13.5820262 8.31444908,12.5273492 9.12304688,11.4375 C10.0019575,10.3828072 11.0039006,9.82031285 12.1289062,9.75 Z" id="ion-social-apple---Ionicons"></path>
                </g>
            </g>
        </g>
    </g>
</svg>